<svg width="413" height="325" viewBox="0 0 413 325" fill="none" xmlns="http://www.w3.org/2000/svg">
<path d="M15 309.756C26.1758 309.756 37.6226 310.398 48.7697 309.599C62.5775 308.611 73.8753 302.884 86.6678 298.787C97.5781 295.293 109.297 293.869 119.777 289.228C133.29 283.244 146.727 276.686 159.161 268.857C186.467 251.664 206.576 225.906 224.884 200.535C238.683 181.414 246.06 158.747 257.993 138.559C275.823 108.4 292.2 73.5122 323.304 53.1569C335.767 45.0004 349.01 38.3462 362.853 32.5506C371.493 28.9336 381.405 25.4152 389.192 20.3279C390.73 19.3228 397.633 15 396.953 15" stroke="#BEC1DA" stroke-width="30" stroke-linecap="round"/>
</svg>
